<svg id="Layer_1" data-name="Layer 1" xmlns="http://www.w3.org/2000/svg" width="184.862" height="50" viewBox="0 0 184.862 50"><title>logo</title><rect x="0.5" y="0.501" width="49" height="49" style="fill:#fff"/><path d="M0,0V47.874c12.27,1.508,31.025-2.554,39.93-13.665,0,0-2.818,11.488-6.751,15.79H50V0ZM20.491,41.719a28.065,28.065,0,0,0-17.642,4.6S3.761,22,20.722,3.812c0,0-6.042,20.813-.231,37.906Zm1.842,1.161s3.249-15.164-.842-27.824c0,0,8.705,6.084,12.927,20.536,0,0-5.139-.591-12.085,7.287Z" transform="translate(0 0.001)" style="fill:#155a59"/><g style="isolation:isolate"><g style="isolation:isolate"><path d="M61.623,27.83a3.1,3.1,0,0,0,3.072,2.041,3.527,3.527,0,0,0,2.688-1.225l2.184,2.137a6.584,6.584,0,0,1-5.041,2.064c-3.888,0-6.409-2.5-6.409-6.1,0-3.768,2.952-6.1,6.385-6.1A6.1,6.1,0,0,1,70.792,26.8a5.957,5.957,0,0,1-.072,1.031Zm2.76-4.2a2.877,2.877,0,0,0-2.664,1.68h5.544A2.969,2.969,0,0,0,64.383,23.63Z" transform="translate(0 0.001)" style="fill:#fff"/><path d="M73.118,23.462h7.057v3.36H73.118Z" transform="translate(0 0.001)" style="fill:#fff"/><path d="M88.142,32.848a13.579,13.579,0,0,1-5.688-1.3l1.32-2.713A12.463,12.463,0,0,0,88.5,29.967c1.128,0,2.112-.145,2.112-.648,0-.264-.384-.5-1.152-.744-2.256-.7-6.625-1.127-6.625-4.3,0-2.4,2.136-3.624,5.3-3.624a14.353,14.353,0,0,1,5.569,1.128l-1.344,2.761a10.636,10.636,0,0,0-4.3-1.032c-.984,0-1.8.1-1.8.552,0,.288.48.456,1.128.672,2.256.648,6.649,1.248,6.649,4.321C94.047,31.814,91.479,32.848,88.142,32.848Z" transform="translate(0 0.001)" style="fill:#fff"/><path d="M105.206,32.607V26.1a2.356,2.356,0,0,0-2.568-2.448,2.325,2.325,0,0,0-2.521,2.28v6.673H96.565V17.654l3.552-1.345V21.59a5.967,5.967,0,0,1,3.456-1.08c3.192,0,5.064,1.775,5.064,5.112v6.985Z" transform="translate(0 0.001)" style="fill:#fff"/><path d="M113.365,15.973a2.041,2.041,0,1,1-2.04,2.04A2.038,2.038,0,0,1,113.365,15.973Zm-1.7,4.921h3.553V32.607h-3.553Z" transform="translate(0 0.001)" style="fill:#fff"/><path d="M121.693,31.959v3.768l-3.528,1.441V20.894h3.528v.72a5.915,5.915,0,0,1,3.12-.96,5.974,5.974,0,0,1,6.192,6.1,5.892,5.892,0,0,1-6.024,6.24A5.369,5.369,0,0,1,121.693,31.959Zm0-7.3v4.343a4.574,4.574,0,0,0,2.544.889,3.136,3.136,0,0,0,3.288-3.264,2.98,2.98,0,0,0-3.216-2.88A4.681,4.681,0,0,0,121.693,24.663Z" transform="translate(0 0.001)" style="fill:#fff"/><path d="M135.877,36.951l2.064-4.537-5.856-11.52h3.744l3.937,7.729,3.648-7.729h3.648l-7.489,16.057Z" transform="translate(0 0.001)" style="fill:#fff"/><path d="M156.829,31.887a6.259,6.259,0,0,1-3.456.889c-1.968,0-5.353-.648-5.353-4.008,0-3,3.625-4.009,5.665-4.009a8.247,8.247,0,0,1,3.144.6V25c0-.864-.96-1.465-2.424-1.465a9.563,9.563,0,0,0-4.272,1.2l-1.1-2.832a13.511,13.511,0,0,1,5.616-1.271c3.528,0,5.736,1.439,5.736,4.224v7.753h-3.553Zm0-3.961a9.585,9.585,0,0,0-2.976-.455c-1.345,0-2.448.48-2.448,1.248,0,.6.864,1.248,2.5,1.248a6.944,6.944,0,0,0,2.928-.84Z" transform="translate(0 0.001)" style="fill:#fff"/></g><g style="isolation:isolate"><path d="M168.277,24.086c-1.271,0-1.632,1.32-1.632,2.785v5.736h-3.5V20.87h3.48v.816a2.861,2.861,0,0,1,2.256-1.032,5.321,5.321,0,0,1,2.5.576l-.841,3.6A4.591,4.591,0,0,0,168.277,24.086Z" transform="translate(0 0.001)" style="fill:#fff"/></g><g style="isolation:isolate"><path d="M181.334,31.887a5.909,5.909,0,0,1-3.12.961,5.984,5.984,0,0,1-6.192-6.072,5.878,5.878,0,0,1,6.024-6.242,6.1,6.1,0,0,1,3.288.96V17.726l3.528-1.368v16.25h-3.528Zm0-7.392a4.768,4.768,0,0,0-2.545-.889,3.136,3.136,0,0,0-3.287,3.265,2.98,2.98,0,0,0,3.216,2.879,4.677,4.677,0,0,0,2.616-.912Z" transform="translate(0 0.001)" style="fill:#fff"/></g></g></svg>