<?xml version="1.0" encoding="utf-8"?>
<!-- Generator: Adobe Illustrator 21.1.0, SVG Export Plug-In . SVG Version: 6.00 Build 0)  -->
<svg version="1.1" id="Layer_1" xmlns="http://www.w3.org/2000/svg" xmlns:xlink="http://www.w3.org/1999/xlink" x="0px" y="0px"
	 viewBox="0 0 65 61" style="enable-background:new 0 0 65 61;" xml:space="preserve">
<style type="text/css">
	.st0{fill:#148C8C;}
</style>
<g>
	<g>
		<path class="st0" d="M46.6,37.7c-1,1.5-2,3.1-3.1,4.8c9.5,1.4,14.4,4.5,14.4,6c0,2-8.6,6.7-25.3,6.7c-16.7,0-25.3-4.7-25.3-6.7
			c0-1.5,4.9-4.6,14.4-6c-1.1-1.7-2.2-3.3-3.1-4.8C9,39.4,1.9,43.1,1.9,48.5c0,7.9,15.4,12,30.6,12c15.2,0,30.6-4.1,30.6-12
			C63.1,43.1,56,39.4,46.6,37.7z"/>
		<g>
			<path class="st0" d="M32.6,0.5c-9.9,0-18,8-18,18c0,7.1,9.2,20.7,14.5,27.9c0.8,1.1,2.1,1.8,3.5,1.8c1.4,0,2.7-0.7,3.5-1.8
				c5.2-7.1,14.5-20.8,14.5-27.9C50.5,8.5,42.5,0.5,32.6,0.5z M32.6,29.6c-5.9,0-10.6-4.8-10.6-10.6c0-5.9,4.8-10.6,10.6-10.6
				c5.9,0,10.6,4.8,10.6,10.6C43.2,24.9,38.4,29.6,32.6,29.6z"/>
			<path class="st0" d="M32.6,12.5c-3.6,0-6.5,2.9-6.5,6.5c0,3.6,2.9,6.5,6.5,6.5c3.6,0,6.5-2.9,6.5-6.5
				C39,15.4,36.1,12.5,32.6,12.5z"/>
		</g>
	</g>
</g>
</svg>
