<?xml version="1.0" encoding="utf-8"?>
<!-- Generator: Adobe Illustrator 21.1.0, SVG Export Plug-In . SVG Version: 6.00 Build 0)  -->
<svg version="1.1" id="Layer_1" xmlns="http://www.w3.org/2000/svg" xmlns:xlink="http://www.w3.org/1999/xlink" x="0px" y="0px"
	 viewBox="0 0 30 30" style="enable-background:new 0 0 30 30;" xml:space="preserve">
<style type="text/css">
	.st0{fill:#00A99D;}
</style>
<g>
	<path class="st0" d="M21.4,27.5H1c-0.3,0-0.5,0.2-0.5,0.5v2h17.3L21.4,27.5z"/>
	<path class="st0" d="M24.4,27.5h-1.3L19.5,30h2.7c0.1,0,0.2,0,0.3-0.1l2.2-1.5c0.2-0.1,0.3-0.4,0.2-0.6
		C24.8,27.6,24.6,27.5,24.4,27.5z"/>
	<path class="st0" d="M5.6,23.4V24l1.7-1.1H6.1C5.8,22.9,5.6,23.1,5.6,23.4z"/>
	<path class="st0" d="M29.5,22.9h-2.3l-3.7,2.5h3.8c0.1,0,0.2,0,0.3-0.1l2.3-1.6c0.1-0.1,0.2-0.4,0.1-0.6
		C29.9,23,29.7,22.9,29.5,22.9z"/>
	<path class="st0" d="M0,19.4c0,0.2,0.3,0.4,0.5,0.4h10.2l-0.9,3.1H9.2l-5.5,3.6h16.7l5.1-3.6h-8.1v-2h8.1c0.1,0,0.3-0.1,0.4-0.2
		c0.2-0.2,0.2-0.5,0-0.7c-0.1-0.1-6.1-6-8.5-19.6c0,0,0,0,0,0c0,0,0-0.1,0-0.1c0,0,0,0,0,0c0,0,0,0,0-0.1c0,0,0,0,0-0.1c0,0,0,0,0,0
		c0,0,0,0-0.1,0c0,0,0,0-0.1,0c0,0,0,0,0,0c0,0,0,0-0.1,0c0,0,0,0,0,0c0,0,0,0-0.1,0c0,0,0,0,0,0c0,0,0,0,0,0c0,0,0,0,0,0
		c0,0,0,0,0,0c0,0,0,0-0.1,0h0c0,0,0,0-0.1,0c0,0,0,0,0,0c0,0,0,0-0.1,0.1c0,0,0,0-0.1,0c0,0,0,0,0,0c0,0,0,0,0,0.1l0,0
		c0,0,0,0,0,0.1c0,0,0,0,0,0v0c-4.5,12.8-15.9,18.5-16,18.5C0.1,19,0,19.2,0,19.4z M11.7,19.8h2.8l-0.8,2.9c0,0,0,0.1,0,0.1h-2.9
		L11.7,19.8z M14.8,22.9l0.9-3.1h0.6v3.1H14.8z"/>
</g>
</svg>
