<?xml version="1.0" encoding="utf-8"?>
<!-- Generator: Adobe Illustrator 21.1.0, SVG Export Plug-In . SVG Version: 6.00 Build 0)  -->
<svg version="1.1" id="Layer_1" xmlns="http://www.w3.org/2000/svg" xmlns:xlink="http://www.w3.org/1999/xlink" x="0px" y="0px"
	 viewBox="0 0 65 61" style="enable-background:new 0 0 65 61;" xml:space="preserve">
<style type="text/css">
	.st0{fill:none;stroke:#148C8C;stroke-width:4.4317;stroke-miterlimit:10;}
	.st1{fill:#148C8C;}
</style>
<g>
	<line class="st0" x1="60.9" y1="30.8" x2="60.9" y2="57.4"/>
	<line class="st0" x1="24.4" y1="37.4" x2="24.4" y2="54.2"/>
	<line class="st0" x1="38.7" y1="36.1" x2="38.7" y2="53.9"/>
	<g>
		<path class="st1" d="M25,12.3h-4.2c-0.7,0-1.3,0.6-1.3,1.3v8.9l13.1-6.3l13.1,6.3v-8.9c0-0.7-0.6-1.3-1.3-1.3h-4.2 M40.1,10.9
			v-0.8c0-0.7-0.6-1.3-1.3-1.3h-3.2l-0.6-5.3h-4.8l-0.6,5.3h-3.2c-0.7,0-1.3,0.6-1.3,1.3v0.8H40.1z M32.6,17.8l-19.4,9.3L19,43.9
			c13.5,3.3,13,3.3,13.5,3.3c3.3,0,0,0,0,0l14.1-4.3L52,27.1L32.6,17.8z"/>
	</g>
	<line class="st0" x1="3.8" y1="30.7" x2="3.8" y2="57.5"/>
	<line class="st0" x1="4.1" y1="55.3" x2="61.2" y2="55.3"/>
</g>
</svg>
