<?xml version="1.0" encoding="utf-8"?>
<!-- Generator: Adobe Illustrator 21.1.0, SVG Export Plug-In . SVG Version: 6.00 Build 0)  -->
<svg version="1.1" id="Layer_1" xmlns="http://www.w3.org/2000/svg" xmlns:xlink="http://www.w3.org/1999/xlink" x="0px" y="0px"
	 viewBox="0 0 30 20" style="enable-background:new 0 0 30 20;" xml:space="preserve">
<style type="text/css">
	.st0{fill:#CCCCCC;}
</style>
<g>
	<g>
		<g>
			<path class="st0" d="M3.3,1.4l10,7.9c0.5,0.4,1.1,0.5,1.7,0.5c0.6,0,1.2-0.1,1.7-0.5l10-7.9c0.8-0.6,0.6-1.2-0.4-1.2H15H3.7
				C2.7,0.2,2.5,0.8,3.3,1.4z"/>
			<path class="st0" d="M27.4,3.5l-11,8.3c-0.4,0.3-0.9,0.5-1.5,0.5c-0.5,0-1.1-0.1-1.5-0.5l-11-8.3C1.7,2.9,1.1,3.2,1.1,4.2v13.7
				c0,1,0.8,1.9,1.9,1.9H15h12.1c1,0,1.9-0.8,1.9-1.9V4.2C28.9,3.2,28.3,2.9,27.4,3.5z"/>
		</g>
	</g>
</g>
</svg>
