<?xml version="1.0" encoding="utf-8"?>
<!-- Generator: Adobe Illustrator 21.1.0, SVG Export Plug-In . SVG Version: 6.00 Build 0)  -->
<svg version="1.1" id="Layer_1" xmlns="http://www.w3.org/2000/svg" xmlns:xlink="http://www.w3.org/1999/xlink" x="0px" y="0px"
	 viewBox="0 0 30 30" style="enable-background:new 0 0 30 30;" xml:space="preserve">
<style type="text/css">
	.st0{fill:#0D5959;}
</style>
<g>
	<path class="st0" d="M21.2,11H8.8c-0.3,0-0.5,0.2-0.5,0.5S8.5,12,8.8,12h12.5c0.3,0,0.5-0.2,0.5-0.5S21.5,11,21.2,11z"/>
	<path class="st0" d="M8.8,8h5c0.3,0,0.5-0.2,0.5-0.5S14,7,13.8,7h-5C8.5,7,8.2,7.2,8.2,7.5S8.5,8,8.8,8z"/>
	<path class="st0" d="M21.2,15H8.8c-0.3,0-0.5,0.2-0.5,0.5S8.5,16,8.8,16h12.5c0.3,0,0.5-0.2,0.5-0.5S21.5,15,21.2,15z"/>
	<path class="st0" d="M21.2,19H8.8c-0.3,0-0.5,0.2-0.5,0.5S8.5,20,8.8,20h12.5c0.3,0,0.5-0.2,0.5-0.5S21.5,19,21.2,19z"/>
	<path class="st0" d="M21.2,23H8.8c-0.3,0-0.5,0.2-0.5,0.5S8.5,24,8.8,24h12.5c0.3,0,0.5-0.2,0.5-0.5S21.5,23,21.2,23z"/>
	<path class="st0" d="M19.5,0H3.2v30h23.5V7.3L19.5,0z M19.8,1.7L25,7h-5.3V1.7z M4.2,29V1h14.5v7h7v21H4.2z"/>
</g>
</svg>
