<?xml version="1.0" encoding="utf-8"?>
<!-- Generator: Adobe Illustrator 21.1.0, SVG Export Plug-In . SVG Version: 6.00 Build 0)  -->
<svg version="1.1" id="Layer_1" xmlns="http://www.w3.org/2000/svg" xmlns:xlink="http://www.w3.org/1999/xlink" x="0px" y="0px"
	 viewBox="0 0 65 61" style="enable-background:new 0 0 65 61;" xml:space="preserve">
<style type="text/css">
	.st0{fill:#148C8C;}
</style>
<g>
	<g>
		<path class="st0" d="M32.5,16.2L11,33.9c0,0,0,0.1,0,0.1c0,0,0,0.1,0,0.1v18c0,0.6,0.2,1.2,0.7,1.7c0.5,0.5,1,0.7,1.7,0.7h14.4
			V40.1h9.6v14.4h14.4c0.6,0,1.2-0.2,1.7-0.7c0.5-0.5,0.7-1,0.7-1.7v-18c0-0.1,0-0.2,0-0.2L32.5,16.2z"/>
		<path class="st0" d="M62.2,29.9L54,23.1V7.8c0-0.3-0.1-0.6-0.3-0.9c-0.2-0.2-0.5-0.3-0.9-0.3h-7.2c-0.3,0-0.6,0.1-0.9,0.3
			c-0.2,0.2-0.3,0.5-0.3,0.9v7.3l-9.1-7.6c-0.8-0.6-1.7-1-2.8-1c-1.1,0-2,0.3-2.8,1L2.8,29.9c-0.2,0.2-0.4,0.5-0.4,0.8
			c0,0.3,0.1,0.6,0.3,0.9l2.3,2.8c0.2,0.2,0.5,0.4,0.8,0.4c0.3,0,0.6-0.1,0.9-0.3l25.9-21.6l25.9,21.6c0.2,0.2,0.5,0.3,0.8,0.3h0.1
			c0.3,0,0.6-0.2,0.8-0.4l2.3-2.8c0.2-0.2,0.3-0.5,0.3-0.9C62.6,30.4,62.5,30.1,62.2,29.9z"/>
	</g>
</g>
</svg>
