<?xml version="1.0" encoding="utf-8"?>
<!-- Generator: Adobe Illustrator 21.1.0, SVG Export Plug-In . SVG Version: 6.00 Build 0)  -->
<svg version="1.1" id="Layer_1" xmlns="http://www.w3.org/2000/svg" xmlns:xlink="http://www.w3.org/1999/xlink" x="0px" y="0px"
	 viewBox="0 0 28 28" style="enable-background:new 0 0 28 28;" xml:space="preserve">
<style type="text/css">
	.st0{fill:#148C8C;}
</style>
<g>
	<path class="st0" d="M18.4,12.5c0-0.1,0.1-0.2,0.2-0.3l2.9-2.9c0.4-0.4,1-0.4,1.4,0c0.4,0.4,0.4,1,0,1.4l-1.2,1.2H27
		c0.5,0,1,0.4,1,1s-0.4,1-1,1h-5.4l1.2,1.2c0.4,0.4,0.4,1,0,1.4c-0.2,0.2-0.4,0.3-0.7,0.3c-0.2,0-0.5-0.1-0.7-0.3l-2.9-2.9
		c-0.1-0.1-0.2-0.2-0.2-0.3C18.4,13,18.4,12.7,18.4,12.5z"/>
	<path class="st0" d="M19.8,16.3c-0.6,0-1.2,0.5-1.2,1.2v5.8H14V4.7c0-0.5-0.3-1-0.8-1.1L9.1,2.3h9.6v5.8c0,0.6,0.5,1.2,1.2,1.2
		c0.6,0,1.2-0.5,1.2-1.2v-7C21,0.5,20.5,0,19.8,0H1.2c0,0-0.1,0-0.1,0C1,0,0.9,0,0.9,0.1c-0.1,0-0.2,0.1-0.3,0.1c0,0-0.1,0-0.1,0
		c0,0,0,0,0,0C0.3,0.4,0.2,0.5,0.1,0.6c0,0,0,0.1,0,0.1C0.1,0.8,0,0.9,0,1c0,0,0,0.1,0,0.1c0,0,0,0,0,0.1v23.3c0,0.6,0.4,1,0.9,1.1
		L12.6,28c0.1,0,0.2,0,0.2,0c0.3,0,0.5-0.1,0.7-0.3c0.3-0.2,0.4-0.6,0.4-0.9v-1.2h5.8c0.6,0,1.2-0.5,1.2-1.2v-7
		C21,16.9,20.5,16.3,19.8,16.3z"/>
</g>
</svg>
