<?xml version="1.0" encoding="utf-8"?>
<!-- Generator: Adobe Illustrator 21.1.0, SVG Export Plug-In . SVG Version: 6.00 Build 0)  -->
<svg version="1.1" id="Layer_1" xmlns="http://www.w3.org/2000/svg" xmlns:xlink="http://www.w3.org/1999/xlink" x="0px" y="0px"
	 viewBox="0 0 28 28" style="enable-background:new 0 0 28 28;" xml:space="preserve">
<style type="text/css">
	.st0{fill:#148C8C;}
</style>
<g>
	<g>
		<g>
			<path class="st0" d="M27.9,12.4c-0.1-0.1-0.1-0.3-0.3-0.4l-3.5-3.5c-0.5-0.5-1.2-0.5-1.6,0c-0.5,0.5-0.5,1.2,0,1.6l1.5,1.5h-6.5
				c-0.6,0-1.2,0.5-1.2,1.2c0,0.6,0.5,1.2,1.2,1.2H24l-1.5,1.5c-0.5,0.5-0.5,1.2,0,1.6c0.2,0.2,0.5,0.3,0.8,0.3s0.6-0.1,0.8-0.3
				l3.5-3.5c0.1-0.1,0.2-0.2,0.3-0.4C28,13,28,12.7,27.9,12.4z"/>
			<path class="st0" d="M19.8,16.3c-0.6,0-1.2,0.5-1.2,1.2v5.8H14V4.7c0-0.5-0.3-1-0.8-1.1L9.1,2.3h9.6v5.8c0,0.6,0.5,1.2,1.2,1.2
				c0.6,0,1.2-0.5,1.2-1.2v-7C21,0.5,20.5,0,19.8,0H1.2c0,0-0.1,0-0.1,0C1,0,0.9,0,0.9,0.1c-0.1,0-0.2,0.1-0.3,0.1c0,0-0.1,0-0.1,0
				c0,0,0,0,0,0C0.3,0.4,0.2,0.5,0.1,0.6c0,0,0,0.1,0,0.1C0.1,0.8,0,0.9,0,1c0,0,0,0.1,0,0.1c0,0,0,0,0,0.1v23.3
				c0,0.6,0.4,1,0.9,1.1L12.6,28c0.1,0,0.2,0,0.2,0c0.3,0,0.5-0.1,0.7-0.3c0.3-0.2,0.4-0.6,0.4-0.9v-1.2h5.8c0.6,0,1.2-0.5,1.2-1.2
				v-7C21,16.9,20.5,16.3,19.8,16.3z"/>
		</g>
	</g>
</g>
</svg>
