<?xml version="1.0" encoding="utf-8"?>
<!-- Generator: Adobe Illustrator 21.1.0, SVG Export Plug-In . SVG Version: 6.00 Build 0)  -->
<svg version="1.1" id="Layer_1" xmlns="http://www.w3.org/2000/svg" xmlns:xlink="http://www.w3.org/1999/xlink" x="0px" y="0px"
	 viewBox="0 0 91 35" style="enable-background:new 0 0 91 35;" xml:space="preserve">
<style type="text/css">
	.st0{fill:#FFFFFF;}
</style>
<g>
	<path class="st0" d="M66,8.4L57.8,2H34.1H31h-4.7v2.4H31l1.2,9.4c-1.3,0.2-2,0.4-2,0.4L12,18.8l-5.8,8.7L0,27.4L2.5,33h73
		c0,0,15.6-16.9,15.5-23.8C91,6.2,79.2,6.8,66,8.4z M34.5,13.3l-1.2-9h0.8h6.3l1.2,7.7C38.8,12.6,36.4,13,34.5,13.3z M43.9,11.7
		l-1.2-7.3h8.7l1.4,5.9C49.7,10.7,46.7,11.2,43.9,11.7z M55.2,9.9l-1.4-5.5h3l6.4,4.4C60.5,9.1,57.8,9.5,55.2,9.9z"/>
</g>
</svg>
