<?xml version="1.0" encoding="utf-8"?>
<!-- Generator: Adobe Illustrator 21.1.0, SVG Export Plug-In . SVG Version: 6.00 Build 0)  -->
<svg version="1.1" id="Layer_1" xmlns="http://www.w3.org/2000/svg" xmlns:xlink="http://www.w3.org/1999/xlink" x="0px" y="0px"
	 viewBox="0 0 18 30" style="enable-background:new 0 0 18 30;" xml:space="preserve">
<style type="text/css">
	.st0{fill:#CCCCCC;}
</style>
<g>
	<g>
		<path class="st0" d="M15.7,0H2.3c-1.1,0-2,0.9-2,2V28c0,1.1,0.9,2,2,2h13.4c1.1,0,2-0.9,2-2V2C17.7,0.9,16.8,0,15.7,0z M6.9,1.5
			h4.3c0.1,0,0.2,0.1,0.2,0.2c0,0.1-0.1,0.2-0.2,0.2H6.9C6.7,2,6.6,1.8,6.6,1.7C6.6,1.6,6.7,1.5,6.9,1.5z M9,29c-0.6,0-1-0.5-1-1
			c0-0.6,0.5-1,1-1s1,0.5,1,1C10,28.5,9.6,29,9,29z M16.3,26.2H1.7v-23h14.6V26.2z"/>
	</g>
</g>
</svg>
