<?xml version="1.0" encoding="utf-8"?>
<!-- Generator: Adobe Illustrator 21.1.0, SVG Export Plug-In . SVG Version: 6.00 Build 0)  -->
<svg version="1.1" id="Layer_1" xmlns="http://www.w3.org/2000/svg" xmlns:xlink="http://www.w3.org/1999/xlink" x="0px" y="0px"
	 viewBox="0 0 65 61" style="enable-background:new 0 0 65 61;" xml:space="preserve">
<style type="text/css">
	.st0{fill:#148C8C;}
</style>
<g>
	<g id="account-circle_1_">
		<path class="st0" d="M32.5,5.5c-13.8,0-25,11.2-25,25s11.2,25,25,25s25-11.2,25-25S46.2,5.5,32.5,5.5z M32.5,13
			c4.2,0,7.5,3.2,7.5,7.5S36.8,28,32.5,28S25,24.8,25,20.5S28.2,13,32.5,13z M32.5,48.5c-6.2,0-11.8-3.2-15-8c0-5,10-7.8,15-7.8
			s15,2.8,15,7.8C44.2,45.2,38.8,48.5,32.5,48.5z"/>
	</g>
</g>
</svg>
