<?xml version="1.0" encoding="utf-8"?>
<!-- Generator: Adobe Illustrator 21.1.0, SVG Export Plug-In . SVG Version: 6.00 Build 0)  -->
<svg version="1.1" id="Layer_1" xmlns="http://www.w3.org/2000/svg" xmlns:xlink="http://www.w3.org/1999/xlink" x="0px" y="0px"
	 viewBox="0 0 28 28" style="enable-background:new 0 0 28 28;" xml:space="preserve">
<style type="text/css">
	.st0{fill:#148C8C;}
</style>
<g>
	<g id="account-circle">
		<path class="st0" d="M14,0C6.3,0,0,6.3,0,14s6.3,14,14,14s14-6.3,14-14S21.7,0,14,0z M14,4.2c2.4,0,4.2,1.8,4.2,4.2
			s-1.8,4.2-4.2,4.2s-4.2-1.8-4.2-4.2S11.6,4.2,14,4.2z M14,24.1c-3.5,0-6.6-1.8-8.4-4.5c0-2.8,5.6-4.3,8.4-4.3s8.4,1.5,8.4,4.3
			C20.6,22.3,17.5,24.1,14,24.1z"/>
	</g>
</g>
</svg>
