<?xml version="1.0" encoding="utf-8"?>
<!-- Generator: Adobe Illustrator 21.1.0, SVG Export Plug-In . SVG Version: 6.00 Build 0)  -->
<svg version="1.1" id="Layer_1" xmlns="http://www.w3.org/2000/svg" xmlns:xlink="http://www.w3.org/1999/xlink" x="0px" y="0px"
	 viewBox="0 0 60 60" style="enable-background:new 0 0 60 60;" xml:space="preserve">
<style type="text/css">
	.st0{fill:#BDE0DE;}
	.st1{fill:#FFFFFF;}
	.st2{font-family:'Ubuntu-Bold';}
	.st3{font-size:11.04px;}
</style>
<g>
	<circle class="st0" cx="30" cy="30" r="30"/>
	<g>
		<path class="st1" d="M44.1,39.6l-4.4-13.7c-0.2-0.6-0.8-1-1.4-1h-4.7c0.4-0.6,0.6-1.4,0.6-2.1c0-2.3-1.9-4.2-4.2-4.2
			c-2.3,0-4.2,1.9-4.2,4.2c0,0.8,0.2,1.5,0.6,2.1h-4.7c-0.6,0-1.2,0.4-1.4,1l-4.4,13.7c-0.3,1,0.4,1.9,1.4,1.9h25.4
			C43.7,41.5,44.4,40.5,44.1,39.6z M27.8,22.7c0-1.2,1-2.2,2.2-2.2s2.2,1,2.2,2.2c0,1.1-0.7,1.9-1.7,2.1h-0.9
			C28.5,24.6,27.8,23.7,27.8,22.7z"/>
	</g>
	<text transform="matrix(0.9263 0 0 1 26.8604 36.4524)" class="st0 st2 st3">T</text>
</g>
</svg>
